<?xml version="1.0" encoding="UTF-8" standalone="no"?>
<svg width="28px" height="28px" viewBox="0 0 28 28" version="1.1" xmlns="http://www.w3.org/2000/svg" xmlns:xlink="http://www.w3.org/1999/xlink">
    <!-- Generator: Sketch 3.8.3 (29802) - http://www.bohemiancoding.com/sketch -->
    <title>basket-icon@1x</title>
    <desc>Created with Sketch.</desc>
    <defs></defs>
    <g id="Cart" stroke="none" stroke-width="1" fill="none" fill-rule="evenodd">
        <g id="Your-Basket" transform="translate(-283.000000, -147.000000)" fill="#55A32A">
            <g id="Group" transform="translate(240.000000, 120.000000)">
                <g id="basket-icon" transform="translate(43.000000, 27.000000)">
                    <path d="M26.7471014,12.7476563 C26.7471014,11.8850586 26.0326087,11.1789388 25.1597826,11.1789388 L3.58731884,11.1789388 C2.71413043,11.1789388 2,11.8850586 2,12.7476563 C2,13.4809896 2.51811594,14.0965169 3.20869565,14.2658854 L5.39746377,24.4981771 C5.39746377,25.4459961 6.18224638,26.221582 7.14094203,26.221582 L21.890942,26.221582 C22.8496377,26.221582 23.6344203,25.4459961 23.6344203,24.4981771 L25.8471014,14.1534505 C26.3771739,13.8992188 26.7471014,13.3660482 26.7471014,12.7476563 L26.7471014,12.7476563 Z M9.12971014,22.4986979 C9.12971014,22.7948242 8.88442029,23.0368815 8.58478261,23.0368815 L8.43442029,23.0368815 C8.13478261,23.0368815 7.88949275,22.7948242 7.88949275,22.4986979 L7.88949275,16.1948242 C7.88949275,15.8986979 8.13478261,15.6562826 8.43442029,15.6562826 L8.58478261,15.6562826 C8.88442029,15.6562826 9.12971014,15.8986979 9.12971014,16.1948242 L9.12971014,22.4986979 L9.12971014,22.4986979 Z M13.1195652,22.4986979 C13.1195652,22.7948242 12.8746377,23.0368815 12.5746377,23.0368815 L12.4246377,23.0368815 C12.1246377,23.0368815 11.8797101,22.7948242 11.8797101,22.4986979 L11.8797101,16.1948242 C11.8797101,15.8986979 12.1246377,15.6562826 12.4246377,15.6562826 L12.5746377,15.6562826 C12.8746377,15.6562826 13.1195652,15.8986979 13.1195652,16.1948242 L13.1195652,22.4986979 L13.1195652,22.4986979 Z M17.1097826,22.4986979 C17.1097826,22.7948242 16.8641304,23.0368815 16.5644928,23.0368815 L16.4141304,23.0368815 C16.1148551,23.0368815 15.8692029,22.7948242 15.8692029,22.4986979 L15.8692029,16.1948242 C15.8692029,15.8986979 16.1148551,15.6562826 16.4141304,15.6562826 L16.5644928,15.6562826 C16.8641304,15.6562826 17.1097826,15.8986979 17.1097826,16.1948242 L17.1097826,22.4986979 L17.1097826,22.4986979 Z M21.0992754,22.4986979 C21.0992754,22.7948242 20.8539855,23.0368815 20.5543478,23.0368815 L20.4043478,23.0368815 C20.1043478,23.0368815 19.859058,22.7948242 19.859058,22.4986979 L19.859058,16.1948242 C19.859058,15.8986979 20.1043478,15.6562826 20.4043478,15.6562826 L20.5543478,15.6562826 C20.8539855,15.6562826 21.0992754,15.8986979 21.0992754,16.1948242 L21.0992754,22.4986979 L21.0992754,22.4986979 Z M7.38478261,8.56751302 C7.87898551,5.16689453 10.8304348,2.5508138 14.407971,2.5508138 C17.9858696,2.5508138 20.9369565,5.16689453 21.4311594,8.56751302 C21.5032609,9.72874349 23.0163043,9.54326172 23.0163043,8.56751302 C22.5130435,4.30751953 18.8536232,1 14.407971,1 C9.96231884,1 6.30289855,4.30751953 5.79927536,8.56751302 C5.79927536,9.77529297 7.40434783,9.82184245 7.38478261,8.56751302 Z" id="Combined-Shape"></path>
                </g>
            </g>
        </g>
    </g>
</svg>